<svg width="216" height="50" viewBox="0 0 216 50" fill="none" xmlns="http://www.w3.org/2000/svg">
<path d="M1 24.5943C1 16.425 6.41011 10.532 13.8207 10.532C21.6057 10.532 27.0651 16.2082 26.4246 25.6783H4.57718C5.06004 31.3052 9.01169 35.247 14.5302 35.247C18.2651 35.247 21.6649 33.1382 23.2317 30.0044L25.7742 32.5469C23.5569 36.1142 19.1224 38.499 14.5302 38.499C6.63676 38.499 1.00986 32.7144 1.00986 24.6042L1 24.5943ZM22.9065 22.5939C23.0149 17.4006 19.2308 13.7741 13.9882 13.7741C8.74562 13.7741 5.33597 17.3414 4.68558 22.5939H22.9065Z" fill="white" stroke="white" stroke-width="0.891667" stroke-miterlimit="10"/>
<path d="M33.2833 11.074H36.2594L36.6339 15.883C38.2599 12.6901 40.8023 10.532 44.7441 10.532C48.9618 10.532 51.8295 12.8576 53.0712 16.6418C54.5887 13.0744 57.9393 10.532 62.3738 10.532C68.1584 10.532 71.5089 15.1242 71.5089 22.3771V38.0556H67.9908V22.4855C67.9908 17.4006 65.6652 13.7741 61.3391 13.7741C57.0129 13.7741 53.9876 17.775 53.9876 23.0767V38.0556H50.4696V22.4855C50.4696 17.4006 48.203 13.7741 43.8769 13.7741C39.0088 13.7741 36.7915 18.051 36.7915 23.0767V38.0556H33.2735V11.074H33.2833Z" fill="white" stroke="white" stroke-width="0.891667" stroke-miterlimit="10"/>
<path d="M79.0377 10.9756H82.0138L82.4966 15.7846C84.6646 12.5917 88.0644 10.542 92.0161 10.542C99.2098 10.542 104.669 16.3857 104.669 24.6043C104.669 32.823 99.2098 38.6667 92.0161 38.6667C88.0644 38.6667 84.6646 36.6071 82.4966 33.4241V48.8858H79.0377V10.9756ZM101.161 24.6043C101.161 18.2778 97.1601 13.7841 91.6416 13.7841C86.1231 13.7841 82.1222 18.2778 82.1222 24.6043C82.1222 30.9309 86.0738 35.4246 91.6416 35.4246C97.2094 35.4246 101.161 30.9309 101.161 24.6043Z" fill="white" stroke="white" stroke-width="0.891667" stroke-miterlimit="10"/>
<path d="M106.561 11.0249H110.296L117.539 34.9319H118.456L122.24 11.0249H130.084L133.868 34.9812H134.785L142.028 11.0249H145.812L137.268 38.0656H130.774L126.99 14.0502H125.364L121.304 38.0065H115.026L106.532 11.0249H106.561Z" fill="white" stroke="white" stroke-width="0.891667" stroke-miterlimit="10"/>
<path d="M165.885 11.0249V14.267H163.668C158.583 14.267 154.04 18.5439 154.04 23.5697V38.0656H150.522V11.0249H153.498L154.04 17.0854C155.775 13.6265 159.391 11.0249 163.885 11.0249H165.885Z" fill="white" stroke="white" stroke-width="0.891667" stroke-miterlimit="10"/>
<path d="M165.057 35.4641C165.057 33.8381 166.408 32.488 168.034 32.488C169.66 32.488 171.01 33.8381 171.01 35.4641C171.01 37.0901 169.66 38.4401 168.034 38.4401C166.408 38.4401 165.057 37.0901 165.057 35.4641Z" fill="white" stroke="white" stroke-width="0.891667" stroke-miterlimit="10"/>
<path d="M201.312 11.025V38.115H198.336L197.745 33.6805C196.395 36.0554 192.552 38.4894 188.442 38.4894C182.382 38.4894 178.982 34.863 178.982 30.2708C178.982 22.8602 186.826 19.9433 197.804 18.9677V14.0996H180.174V11.0151H201.322L201.312 11.025ZM197.853 26.4374V21.8945C187.851 22.9785 182.49 24.6537 182.49 30.2807C182.49 33.1483 184.973 35.4148 188.6 35.4148C193.842 35.4148 197.843 31.3055 197.843 26.4374H197.853Z" fill="white" stroke="white" stroke-width="0.891667" stroke-miterlimit="10"/>
<path d="M209.048 3.89024C209.048 2.26425 210.398 0.914185 212.024 0.914185C213.65 0.914185 215 2.26425 215 3.89024C215 5.51623 213.65 6.86629 212.024 6.86629C210.398 6.86629 209.048 5.51623 209.048 3.89024ZM210.29 11.0249H213.808V38.0656H210.29V11.0249Z" fill="white" stroke="white" stroke-width="0.891667" stroke-miterlimit="10"/>
</svg>
